<?xml version="1.0" encoding="utf-8"?>
<svg version="1.1" id="_x34_04" xmlns="http://www.w3.org/2000/svg" xmlns:xlink="http://www.w3.org/1999/xlink" x="0px"
	y="0px" viewBox="0 0 3000 2025" style="enable-background:new 0 0 3000 2025;" xml:space="preserve">
	<rect style="fill:#FFFFFF;" width="3000" height="2025" />

	<g>
		<defs>
			<rect id="SVGID_1_" width="3000" height="2025" />
		</defs>
		<clipPath id="SVGID_00000114053871486078685360000002714882756536569473_">
			<use xlink:href="#SVGID_1_" style="overflow:visible;" />
		</clipPath>
		<g style="clip-path:url(#SVGID_00000114053871486078685360000002714882756536569473_);">
			<defs>
				<rect id="SVGID_00000080206231586168124700000008278943680198268849_" width="3000" height="2025" />
			</defs>
			<clipPath id="SVGID_00000011027012534511724200000002853774834016673959_">
				<use xlink:href="#SVGID_00000080206231586168124700000008278943680198268849_"
					style="overflow:visible;" />
			</clipPath>

			<circle
				style="opacity:0.08;clip-path:url(#SVGID_00000011027012534511724200000002853774834016673959_);fill:#3B6FA3;"
				cx="1520.025" cy="925.681" r="498.224" />

			<circle style="clip-path:url(#SVGID_00000011027012534511724200000002853774834016673959_);fill:#F0F7FC;"
				cx="1500" cy="908.392" r="498.224" />
			<g style="clip-path:url(#SVGID_00000011027012534511724200000002853774834016673959_);">
				<path style="opacity:0.31;fill:#3B6FA3;" d="M1124.57,1155.887l98.308-41.797l-50.594-119.002l-98.308,41.797l-2.481-5.836
				c-4.206-9.892-15.633-14.501-25.525-10.296l-18.896,8.034l-1.397-3.285c-1.638-3.853-6.089-5.648-9.942-4.01l-22.66,9.634
				c-3.853,1.638-5.648,6.089-4.01,9.942l1.397,3.285l-10.707,4.552l-1.397-3.286c-1.638-3.853-6.089-5.648-9.942-4.01l-22.66,9.634
				c-3.853,1.638-5.648,6.089-4.01,9.942l1.397,3.286l-133.181,56.623c-9.891,4.205-14.501,15.633-10.295,25.525l12.472,29.335
				l-44.211,18.797l7.767,18.268c-110.468,47.549-234.719,99.803-355.232,103.245c-51.589,1.473-151.704-17.622-242.509-162.1
				c-24.806-39.464-44.929-81.69-61.342-117.79c-2.849-6.265-5.61-12.967-8.534-20.061c-14.06-34.128-29.998-72.809-67.211-91.578
				c-53.159-26.81-100.625,3.327-138.765,27.544c-4.638,2.945-9.213,5.85-13.724,8.608c-12.165,7.436-24.694,15.504-36.808,23.308
				c-63.795,41.088-129.761,83.576-201.345,76.497c-64.573-6.385-122.211-49.084-154.179-114.232
				c-63.96-130.34-53.344-262.173,32.459-403.035c75.627-124.155,195.502-234.107,301.266-331.115
				c15.999-14.676,31.111-28.536,45.921-42.306c30.096-27.983,64.022-61.328,85.702-102.996
				C-13.925,19.572-9.967-31.356-27.747-72.72c-15.202-35.395-47.106-65.576-94.808-89.729
				c-77.135-39.055-159.305-55.518-244.231-48.929c-73.639,5.713-151.522,29.023-231.481,69.283
				c-142.958,71.978-270.667,184.419-387.38,295.205l-83.048,78.831l25.842,27.225l83.048-78.831
				C-845.177,71.528-719.997-38.78-581.388-108.568c75.579-38.054,148.759-60.053,217.507-65.387
				c77.969-6.049,153.458,9.09,224.369,44.995c39.64,20.07,65.645,43.98,77.279,71.062c13.117,30.515,9.501,70.731-9.672,107.579
				c-18.918,36.362-50.162,66.985-77.962,92.832c-14.716,13.684-29.784,27.502-45.735,42.133
				c-107.6,98.694-229.556,210.553-307.95,339.252c-43.523,71.451-68.531,139.434-76.454,207.835
				c-9.012,77.816,5.238,155.624,42.356,231.26c7.201,14.675,15.528,28.379,24.843,41.016
				c39.483,53.577,96.553,87.825,159.339,94.035c84.603,8.367,159.385-39.798,225.363-82.293
				c12.482-8.04,24.272-15.633,36.061-22.839c4.691-2.867,9.446-5.885,14.266-8.945c40.842-25.932,69.99-41.732,101.743-25.717
				c24.74,12.471,37.282,42.918,49.41,72.36c2.92,7.089,5.94,14.419,9.068,21.298c16.93,37.239,37.744,80.881,63.735,122.23
				c43.24,68.799,136.515,183.61,275.359,179.644c127.535-3.642,255.323-57.357,368.846-106.22l7.838,18.435l44.211-18.797
				l12.794,30.093c4.205,9.891,15.633,14.5,25.524,10.295l133.181-56.623l1.397,3.286c1.638,3.853,6.089,5.649,9.942,4.01
				l22.66-9.634c3.853-1.638,5.648-6.089,4.01-9.942l-1.397-3.286l10.708-4.552l1.397,3.286c1.638,3.853,6.089,5.648,9.942,4.01
				l22.66-9.634c3.853-1.638,5.648-6.089,4.01-9.942l-1.397-3.285l18.896-8.034c9.891-4.205,14.501-15.633,10.295-25.524
				L1124.57,1155.887z" />
				<g>
					<g>
						<g>
							<g>
								<g>
									<defs>
										<path id="XMLID_1_" d="M1068.164,1177.441c1.638,3.853,6.089,5.648,9.942,4.01l22.66-9.634
										c3.853-1.638,5.648-6.089,4.01-9.942l-1.397-3.285l18.896-8.034c9.891-4.205,14.501-15.633,10.295-25.524l-55.557-130.674
										c-4.206-9.892-15.633-14.501-25.525-10.296l-18.896,8.034l-1.397-3.285c-1.638-3.853-6.089-5.648-9.942-4.01l-22.66,9.634
										c-3.853,1.638-5.648,6.089-4.01,9.942l1.397,3.285l-10.707,4.552l-1.397-3.285c-1.638-3.853-6.089-5.648-9.942-4.01
										l-22.66,9.634c-3.853,1.638-5.648,6.089-4.01,9.942l1.397,3.286l-133.181,56.623c-9.891,4.205-14.501,15.633-10.295,25.525
										l55.558,130.675c4.205,9.891,15.633,14.5,25.524,10.295l133.181-56.623l1.397,3.286c1.638,3.853,6.089,5.648,9.942,4.01
										l22.66-9.634c3.853-1.638,5.648-6.089,4.01-9.942l-1.397-3.286l10.707-4.552L1068.164,1177.441z" />
									</defs>
									<use xlink:href="#XMLID_1_" style="overflow:visible;fill:#ACC196;" />
									<clipPath id="XMLID_00000150092952159889562820000004888898784391116714_">
										<use xlink:href="#XMLID_1_" style="overflow:visible;" />
									</clipPath>

									<polyline
										style="opacity:0.14;clip-path:url(#XMLID_00000150092952159889562820000004888898784391116714_);fill:#1E3F20;"
										points="
									831.007,1174.566 1123.621,1051.208 1068.108,947.377 773.063,1076.909 799.667,1146.619 831.007,1174.566 								" />
								</g>

								<rect x="1089.291" y="985.384"
									transform="matrix(0.3913 0.9203 -0.9203 0.3913 1658.4274 -429.5998)"
									style="fill:#345830;" width="129.31" height="106.824" />
								<g>

									<rect x="1154.799" y="968.621"
										transform="matrix(0.3913 0.9203 -0.9203 0.3913 1612.4595 -473.9143)"
										style="fill:#FFFFFF;" width="19.313" height="26.519" />

									<rect x="1167.415" y="998.295"
										transform="matrix(0.3913 0.9203 -0.9203 0.3913 1647.4471 -467.4611)"
										style="fill:#FFFFFF;" width="19.313" height="26.519" />

									<rect x="1180.031" y="1027.968"
										transform="matrix(0.3913 0.9203 -0.9203 0.3913 1682.442 -461.0055)"
										style="fill:#FFFFFF;" width="19.313" height="26.519" />

									<rect x="1192.647" y="1057.642"
										transform="matrix(0.3913 0.9203 -0.9203 0.3913 1717.402 -454.5615)"
										style="fill:#FFFFFF;" width="19.313" height="26.519" />
								</g>
							</g>

							<rect x="935.561" y="1087.367"
								transform="matrix(0.3913 0.9203 -0.9203 0.3913 1630.6097 -278.7634)"
								style="fill:#1E3F20;" width="180.917" height="11.635" />
						</g>

						<rect x="769.057" y="1160.125"
							transform="matrix(0.3913 0.9203 -0.9203 0.3913 1583.1449 -21.4239)" style="fill:#345830;"
							width="77.419" height="51.705" />
					</g>
					<path style="fill:#345830;" d="M-511.906,969.727c-9.314-12.637-17.642-26.341-24.843-41.016
					c-37.118-75.637-51.368-153.445-42.356-231.26c7.922-68.401,32.93-136.384,76.454-207.835
					c78.394-128.699,200.35-240.559,307.95-339.252c15.952-14.631,31.019-28.45,45.735-42.133
					c27.799-25.847,59.044-56.47,77.962-92.832c19.173-36.848,22.789-77.064,9.672-107.579
					c-11.634-27.082-37.639-50.992-77.279-71.062c-70.911-35.905-146.4-51.044-224.369-44.995
					c-68.749,5.334-141.928,27.333-217.507,65.387C-719.096-73.062-844.276,37.246-958.903,146.053l-83.048,78.831l-25.842-27.225
					l83.048-78.831C-868.032,8.042-740.323-104.4-597.365-176.377c79.959-40.26,157.842-63.57,231.481-69.283
					c84.925-6.59,167.095,9.874,244.231,48.929c47.703,24.153,79.606,54.335,94.808,89.729
					C-9.066-65.637-13.024-14.71-37.703,32.724c-21.681,41.668-55.606,75.013-85.702,102.996
					c-14.811,13.77-29.922,27.63-45.921,42.306c-105.764,97.009-225.639,206.96-301.267,331.115
					c-85.803,140.861-96.419,272.694-32.459,403.034c31.968,65.148,89.606,107.847,154.179,114.232
					c71.583,7.08,137.55-35.408,201.345-76.497c12.115-7.804,24.643-15.871,36.809-23.308c4.511-2.758,9.086-5.662,13.724-8.608
					c38.14-24.217,85.606-54.354,138.765-27.544c37.213,18.769,53.152,57.45,67.211,91.578c2.924,7.094,5.685,13.796,8.534,20.061
					c16.413,36.1,36.536,78.326,61.342,117.79c90.805,144.478,190.92,163.572,242.509,162.1
					c123.746-3.534,251.436-58.535,364.095-107.061l16.314-7.022l14.821,34.486l-16.286,7.01
					c-115.752,49.858-246.947,106.369-377.872,110.107c-138.845,3.965-232.119-110.845-275.359-179.644
					c-25.991-41.349-46.804-84.992-63.735-122.23c-3.128-6.88-6.148-14.21-9.068-21.298c-12.128-29.442-24.67-59.89-49.41-72.36
					c-31.753-16.015-60.9-0.215-101.743,25.717c-4.819,3.06-9.575,6.078-14.265,8.945c-11.789,7.206-23.579,14.8-36.061,22.839
					c-65.978,42.495-140.759,90.66-225.362,82.293C-415.354,1057.553-472.424,1023.305-511.906,969.727z" />
				</g>
			</g>
			<g style="clip-path:url(#SVGID_00000011027012534511724200000002853774834016673959_);">
				<path style="opacity:0.31;fill:#345830;" d="M3873.876,1419.992c-60.231,0.339-138.799-40.138-178.552-131.331
				c-49.052-112.514-23.54-233.633,1.101-350.762c1.882-8.943,3.758-17.853,5.594-26.726l1.406-6.801
				c28.041-135.536,57.045-275.718,57.511-416.828c0.285-86.094-16.873-173.969-48.309-247.438
				c-37.595-87.861-94.701-152.648-165.147-187.358c-66.072-32.554-140.265-35.721-198.467-8.472
				c-51.85,24.275-86.987,69.079-101.615,129.57c-24.171,99.969-4.436,204.417,14.646,305.436c2.45,12.966,4.88,25.829,7.189,38.557
				c1.25,6.897,2.526,13.854,3.812,20.867c26.696,145.601,56.955,310.629-40.185,432.125
				c-29.73,37.179-63.021,56.544-101.773,59.205c-101.309,6.954-216.976-102.803-309.917-190.995
				c-36.227-34.377-67.513-64.065-94.08-83.34c-167.679-121.643-317.732-161.034-458.018-120.092l-11.458-24.823l-52.509,24.238
				l-10.645-23.061c-4.049-8.771-14.442-12.6-23.213-8.551l-134.256,61.973l-2.613-5.662c-2.096-4.54-7.476-6.522-12.016-4.426
				l-132.489,61.157c-4.54,2.096-6.522,7.476-4.426,12.016l2.613,5.661l-58.192,26.861c-8.771,4.049-12.599,14.442-8.55,23.213
				l17.465,37.837l-133.056,61.803c-10.696,4.937-15.364,17.61-10.427,28.305c4.937,10.696,17.61,15.364,28.305,10.427
				l133.126-61.651l17.688,38.318c4.049,8.771,14.442,12.6,23.213,8.551l58.192-26.861l2.613,5.661
				c2.096,4.541,7.476,6.522,12.016,4.426l132.489-61.157c4.541-2.096,6.522-7.476,4.426-12.016l-2.613-5.661l134.256-61.973
				c8.771-4.049,12.6-14.442,8.551-23.213l-7.951-17.225l-2.694-5.836l52.509-24.238l-12.812-27.755
				c133.983-38.034,278.177,0.748,440.026,118.16c25.618,18.586,56.51,47.901,92.281,81.843
				c95.466,90.589,214.276,203.331,323.386,195.84c43.39-2.977,81.897-25.132,114.456-65.846
				c102.205-127.829,71.174-297.106,43.789-446.449c-1.282-6.999-2.556-13.947-3.806-20.831
				c-2.315-12.772-4.753-25.676-7.211-38.686c-18.733-99.169-38.121-201.701-14.833-297.948
				c13.313-55.056,45.077-95.734,91.86-117.637c53.355-24.98,121.787-21.869,183.056,8.319
				c66.581,32.806,120.751,94.495,156.651,178.396c30.503,71.286,47.149,156.654,46.874,240.377
				c-0.459,139.317-29.276,278.604-57.142,413.28l-1.407,6.803c-1.83,8.851-3.703,17.74-5.581,26.662
				c-25.237,119.88-51.325,243.813-0.001,361.543c17.088,39.197,44.69,74.747,77.724,100.1
				c36.025,27.65,76.567,42.143,117.241,41.915L3873.876,1419.992z" />
				<g>
					<g>
						<g>
							<g>
								<defs>
									<path id="XMLID_2_" d="M2196.736,576.791l53.102,115.038c4.049,8.771,0.221,19.164-8.551,23.213l-341.379,157.581
									c-8.771,4.049-19.164,0.221-23.213-8.551l-53.102-115.038c-4.049-8.771-0.221-19.164,8.55-23.213l341.38-157.581
									C2182.294,564.191,2192.687,568.019,2196.736,576.791z" />
								</defs>
								<use xlink:href="#XMLID_2_" style="overflow:visible;fill:#ACC196;" />
								<clipPath id="XMLID_00000154402167667734081110000017951705226710563757_">
									<use xlink:href="#XMLID_2_" style="overflow:visible;" />
								</clipPath>

								<polygon
									style="opacity:0.14;clip-path:url(#XMLID_00000154402167667734081110000017951705226710563757_);fill:#86B2E8;"
									points="
								2229.603,634.288 1825.855,816.009 1793.067,715.218 1936.361,608.355 2210.804,533.065 							" />
							</g>
							<path style="fill:#345830;" d="M2036.653,624.551l72.991,158.125c2.096,4.541,0.114,9.92-4.426,12.016l-132.489,61.157
							c-4.54,2.096-9.92,0.114-12.016-4.426l-72.991-158.125c-2.096-4.541-0.114-9.921,4.426-12.016l132.489-61.157
							C2029.177,618.029,2034.557,620.011,2036.653,624.551z" />
							<g>
								<path style="fill:#E2F0FE;" d="M2093.309,775.923L2093.309,775.923c1.507,3.264,0.082,7.131-3.182,8.638l-115.141,53.149
								c-3.264,1.507-7.131,0.082-8.638-3.182v0c-1.507-3.264-0.082-7.131,3.182-8.638l115.141-53.149
								C2087.935,771.234,2091.802,772.659,2093.309,775.923z" />
								<path style="fill:#E2F0FE;" d="M2080.886,749.011L2080.886,749.011c1.507,3.264,0.082,7.132-3.182,8.638l-115.141,53.149
								c-3.264,1.507-7.131,0.082-8.638-3.182l0,0c-1.507-3.264-0.082-7.132,3.182-8.638l115.141-53.149
								C2075.512,744.323,2079.38,745.747,2080.886,749.011z" />
								<path style="fill:#E2F0FE;" d="M2068.463,722.099L2068.463,722.099c1.507,3.264,0.083,7.131-3.182,8.638l-115.141,53.149
								c-3.264,1.507-7.131,0.082-8.638-3.182l0,0c-1.507-3.264-0.082-7.131,3.182-8.638l115.141-53.149
								C2063.09,717.411,2066.957,718.835,2068.463,722.099z" />
								<path style="fill:#E2F0FE;" d="M2056.041,695.187L2056.041,695.187c1.507,3.264,0.082,7.131-3.182,8.638l-115.141,53.149
								c-3.264,1.507-7.131,0.082-8.638-3.182l0,0c-1.507-3.264-0.082-7.131,3.182-8.638l115.141-53.149
								C2050.667,690.498,2054.534,691.923,2056.041,695.187z" />
								<path style="fill:#E2F0FE;" d="M2043.619,668.275L2043.619,668.275c1.507,3.264,0.082,7.131-3.182,8.638l-115.141,53.149
								c-3.264,1.507-7.132,0.082-8.638-3.182l0,0c-1.507-3.264-0.082-7.132,3.182-8.638l115.141-53.149
								C2038.244,663.587,2042.112,665.011,2043.619,668.275z" />
								<path style="fill:#E2F0FE;" d="M2031.196,641.363L2031.196,641.363c1.507,3.264,0.082,7.132-3.182,8.638l-115.141,53.149
								c-3.264,1.507-7.131,0.082-8.638-3.182l0,0c-1.507-3.264-0.082-7.131,3.182-8.638l115.141-53.149
								C2025.822,636.675,2029.689,638.099,2031.196,641.363z" />
							</g>
							<path style="fill:#345830;" d="M1841.204,787.187l17.879,38.732l-133.202,61.487c-10.695,4.937-23.368,0.269-28.305-10.427
							l0,0c-4.937-10.695-0.269-23.368,10.427-28.305L1841.204,787.187z" />
						</g>

						<rect x="2211.589" y="593.274"
							transform="matrix(-0.4191 -0.9079 0.9079 -0.4191 2627.4194 2925.3977)" style="fill:#345830;"
							width="75.904" height="57.833" />
					</g>
					<path style="fill:#345830;" d="M2253.521,606.073c145.394-49.794,301.043-12.356,475.845,114.455
					c26.567,19.275,57.854,48.963,94.08,83.34c92.941,88.192,208.608,197.949,309.917,190.995
					c38.752-2.661,72.043-22.026,101.773-59.205c97.14-121.496,66.881-286.524,40.185-432.125
					c-1.285-7.012-2.562-13.97-3.812-20.867c-2.31-12.728-4.74-25.591-7.189-38.557c-19.081-101.02-38.816-205.467-14.646-305.436
					c14.628-60.49,49.766-105.295,101.615-129.57c58.203-27.249,132.396-24.082,198.467,8.472
					c70.447,34.71,127.552,99.497,165.148,187.358c31.436,73.469,48.594,161.344,48.309,247.438
					c-0.466,141.11-29.47,281.292-57.511,416.828l-1.407,6.801c-1.836,8.872-3.712,17.783-5.594,26.726
					c-24.642,117.129-50.154,238.248-1.102,350.762c39.753,91.194,118.321,131.67,178.552,131.331l0.099,17.797
					c-40.674,0.228-81.216-14.265-117.242-41.915c-33.034-25.353-60.636-60.903-77.724-100.1
					c-51.324-117.73-25.236-241.663,0.001-361.542c1.878-8.922,3.751-17.812,5.581-26.663l1.407-6.803
					c27.866-134.676,56.683-273.963,57.142-413.28c0.275-83.723-16.371-169.091-46.874-240.377
					c-35.9-83.901-90.07-145.59-156.651-178.396c-61.27-30.188-129.702-33.299-183.056-8.319
					c-46.784,21.903-78.548,62.581-91.861,117.637c-23.288,96.247-3.9,198.779,14.833,297.948
					c2.458,13.01,4.896,25.914,7.211,38.686c1.25,6.885,2.524,13.832,3.806,20.832c27.385,149.343,58.417,318.619-43.789,446.449
					c-32.558,40.714-71.065,62.869-114.456,65.846c-109.11,7.491-227.92-105.251-323.386-195.84
					c-35.771-33.942-66.663-63.257-92.281-81.843c-169.771-123.16-320.117-159.804-459.629-112.024L2253.521,606.073z" />
				</g>
			</g>
			<g style="clip-path:url(#SVGID_00000011027012534511724200000002853774834016673959_);">
				<path style="fill:#345830;" d="M1470.225,1120.906c1.68-3.921,3.982-7.341,6.907-10.267c2.923-2.923,6.347-5.228,10.268-6.907
				c3.919-1.68,8.12-2.52,12.6-2.52s8.681,0.84,12.6,2.52c3.921,1.68,7.343,3.985,10.268,6.907
				c2.923,2.926,5.227,6.347,6.907,10.267c1.68,3.92,2.52,8.12,2.52,12.6c0,4.48-0.84,8.68-2.52,12.602
				c-1.68,3.919-3.985,7.344-6.907,10.266c-2.925,2.926-6.347,5.228-10.268,6.907c-3.919,1.68-8.12,2.52-12.6,2.52
				s-8.681-0.84-12.6-2.52c-3.921-1.68-7.344-3.981-10.268-6.907c-2.926-2.921-5.227-6.346-6.907-10.266
				c-1.68-3.921-2.52-8.121-2.52-12.602C1467.705,1129.025,1468.545,1124.825,1470.225,1120.906z M1547.055,613.456
				c0-18.385-3.519-32.177-10.545-41.375c-7.035-9.193-19.204-13.792-36.509-13.792c-17.31,0-29.48,4.599-36.509,13.792
				c-7.032,9.198-10.545,22.99-10.545,41.375v165.83l24.337,246.961v-0.649c1.08,8.225,3.896,13.848,8.438,16.877
				c4.542,3.031,9.301,4.542,14.279,4.542c4.974,0,9.68-1.46,14.118-4.381c4.429-2.921,7.188-8.382,8.274-16.389l24.663-246.961
				V613.456z" />
			</g>
		</g>
		<g style="opacity:0.31;clip-path:url(#SVGID_00000114053871486078685360000002714882756536569473_);">
			<path style="fill:#345830;" d="M-145.382,729.194l-16.525-42.93c90.792-34.95,177.336-81.759,257.228-139.126
			c79.892-57.367,151.904-124.412,214.039-199.272c14.65-17.65,29.306-36.342,43.479-54.418
			c58.173-74.191,118.326-150.908,205.243-193.84c79.233-39.138,178.804-48.182,295.947-26.881
			c52.243,9.499,103.792,23.771,153.644,37.574c41.218,11.412,83.839,23.212,126.023,32.035
			c80.322,16.799,164.163,23.651,249.202,20.371c82.051-3.167,165.609-15.768,248.354-37.455
			c160.496-42.064,317.479-118.457,453.98-220.921l27.615,36.788c-141.224,106.01-303.725,185.069-469.934,228.63
			c-85.973,22.533-172.858,35.628-258.243,38.923c-88.787,3.43-176.396-3.744-260.393-21.311
			c-43.624-9.124-86.965-21.124-128.88-32.729c-48.869-13.53-99.4-27.521-149.6-36.648
			c-107.215-19.494-197.162-11.801-267.346,22.866c-77.542,38.302-134.415,110.835-189.416,180.98
			c-14.368,18.324-29.224,37.271-44.283,55.414c-64.636,77.874-139.531,147.607-222.605,207.258
			C39.077,644.156-50.934,692.836-145.382,729.194z" />
		</g>
		<g style="clip-path:url(#SVGID_00000114053871486078685360000002714882756536569473_);">
			<path style="fill:#345830;" d="M-145.382,709.226l-16.525-42.93c90.792-34.95,177.336-81.759,257.228-139.126
			c79.892-57.367,151.904-124.412,214.039-199.272c14.65-17.65,29.306-36.342,43.479-54.418
			c58.173-74.191,118.326-150.908,205.243-193.84c79.233-39.138,178.804-48.182,295.947-26.881
			c52.243,9.499,103.792,23.771,153.644,37.574c41.218,11.412,83.839,23.212,126.023,32.035
			c80.322,16.799,164.163,23.651,249.202,20.371c82.051-3.167,165.609-15.769,248.354-37.455
			c160.496-42.064,317.479-118.457,453.98-220.921l27.615,36.788c-141.224,106.01-303.725,185.069-469.934,228.63
			c-85.973,22.533-172.858,35.628-258.243,38.923c-88.787,3.43-176.396-3.744-260.393-21.311
			c-43.624-9.124-86.965-21.124-128.88-32.729c-48.869-13.53-99.4-27.521-149.6-36.648
			c-107.215-19.494-197.162-11.801-267.346,22.866c-77.542,38.302-134.415,110.835-189.416,180.98
			c-14.368,18.324-29.224,37.271-44.283,55.414c-64.636,77.874-139.531,147.606-222.605,207.258
			C39.077,624.188-50.934,672.868-145.382,709.226z" />
		</g>
		<g style="opacity:0.31;clip-path:url(#SVGID_00000114053871486078685360000002714882756536569473_);">
			<path style="fill:#345830;" d="M2048.966,2199.936l1.645-79.159l12.612,0.262c39.453-67.646,102.107-112.788,190.746-137.635
			c84.667-23.733,178.954-25.855,270.137-27.908c45.058-1.014,87.615-1.972,126.428-5.577
			c61.323-5.696,105.303-16.755,142.599-35.857c26.28-13.461,47.515-31.071,63.113-52.342c14.524-19.806,23.877-42.33,27.798-66.945
			c9.46-59.383-13.648-123.815-61.814-172.358c-25.987-26.191-57.037-49.399-89.909-73.97
			c-62.244-46.524-126.607-94.632-156.982-166.022c-19.635-46.146-19.677-98.616-0.115-143.956
			c18.004-41.729,50.985-73.231,92.87-88.706c63.472-23.447,139.051-29.949,224.641-19.328
			c71.385,8.86,148.613,30.262,217.459,60.263l-8.789,20.168c-118.713-51.731-292.878-89.527-425.687-40.466
			c-36.183,13.368-64.698,40.637-80.294,76.784c-17.188,39.84-17.13,85.993,0.159,126.628
			c28.053,65.933,90.001,112.235,149.909,157.014c32.066,23.968,65.224,48.752,92.355,76.096
			c53.091,53.508,78.483,125.027,67.924,191.315c-9.268,58.174-45.708,106.263-102.608,135.406
			c-39.905,20.439-86.351,32.216-150.593,38.184c-39.581,3.676-82.514,4.643-127.968,5.666
			c-89.819,2.021-182.697,4.111-264.693,27.097c-43.87,12.297-79.903,29.244-110.16,51.81
			c-34.095,25.428-59.862,57.19-78.776,97.104L2048.966,2199.936z" />
		</g>
		<g style="clip-path:url(#SVGID_00000114053871486078685360000002714882756536569473_);">
			<path style="fill:#345830;" d="M2033.088,2199.936l1.645-79.159l12.612,0.262c39.453-67.646,102.108-112.788,190.746-137.635
			c84.667-23.733,178.954-25.855,270.137-27.908c45.058-1.014,87.615-1.972,126.428-5.577
			c61.323-5.696,105.302-16.755,142.598-35.857c26.28-13.461,47.515-31.071,63.113-52.342c14.524-19.806,23.877-42.33,27.798-66.945
			c9.46-59.383-13.649-123.815-61.815-172.358c-25.987-26.191-57.037-49.399-89.909-73.97
			c-62.244-46.524-126.607-94.632-156.982-166.022c-19.635-46.146-19.677-98.616-0.115-143.956
			c18.004-41.729,50.985-73.231,92.87-88.706c63.472-23.447,139.051-29.949,224.64-19.328
			c71.385,8.86,148.614,30.262,217.459,60.263l-8.789,20.168c-118.713-51.731-292.878-89.527-425.687-40.466
			c-36.182,13.368-64.698,40.637-80.294,76.784c-17.188,39.84-17.13,85.993,0.159,126.628
			c28.053,65.933,90.001,112.235,149.909,157.014c32.066,23.968,65.224,48.752,92.356,76.096
			c53.091,53.508,78.483,125.027,67.924,191.315c-9.268,58.174-45.708,106.263-102.608,135.406
			c-39.905,20.439-86.351,32.216-150.593,38.184c-39.581,3.676-82.513,4.643-127.968,5.666
			c-89.82,2.021-182.698,4.111-264.694,27.097c-43.87,12.297-79.903,29.244-110.16,51.81c-34.095,25.428-59.862,57.19-78.776,97.104
			L2033.088,2199.936z" />
		</g>
	</g>
</svg>